# Blender v2.92.0 OBJ File: 'tec.blend'
# www.blender.org
mtllib laptop.mtl
o Laptop_Cube
v 1.112309 0.001899 -0.527274
v 0.757632 0.471496 -0.527106
v 1.112309 0.001899 0.822048
v 1.112309 0.307270 0.822048
v -1.112309 0.001899 -0.527273
v -0.757632 0.471496 -0.527106
v -1.112309 0.001899 0.822048
v -1.112309 0.307270 0.822048
v 1.112309 0.313068 -0.832344
v 0.757632 1.501063 -0.526991
v 1.112309 1.662390 -0.832345
v -1.112309 0.313068 -0.832344
v -0.757632 1.501063 -0.526991
v -1.112309 1.662390 -0.832344
v -1.112309 0.310169 -0.527123
v 1.112309 0.310169 -0.527124
v -1.112309 1.662390 -0.526973
v 1.112309 1.662390 -0.526974
vt 1.156250 0.812500
vt 0.781250 0.906250
vt 0.781250 0.812500
vt 0.171875 0.812500
vt 0.171875 0.906250
vt -0.203125 0.812500
vt 0.578125 1.000000
vt 0.015625 0.921875
vt 0.578125 0.921875
vt 0.375000 0.500000
vt 0.125000 0.750000
vt 0.125000 0.500000
vt 0.718750 0.812500
vt 0.968750 0.375000
vt 0.968750 0.812500
vt 0.283257 0.812500
vt 0.703125 0.906250
vt 0.283257 0.906250
vt 0.000000 0.812500
vt 0.703125 0.906250
vt 0.000000 0.906250
vt 1.406250 0.906250
vt 1.826118 0.812500
vt 1.826118 0.906250
vt -0.419868 0.812500
vt -0.419868 0.906250
vt 0.703125 0.390625
vt 0.703125 0.812500
vt 0.109375 0.046875
vt 0.625000 -0.000000
vt 0.515625 0.046875
vt 0.515625 0.328125
vt 0.000000 0.375000
vt 0.109375 0.328125
vt 0.625000 0.375000
vt 0.000000 -0.000000
vt 0.645981 0.945929
vt 0.645981 0.985163
vt 0.703723 0.985163
vt 1.156250 0.906250
vt -0.203125 0.906250
vt 0.015625 1.000000
vt 0.375000 0.750000
vt 0.718750 0.375000
vt 0.703125 0.812500
vt 1.406250 0.812500
vt 0.000000 0.390625
vt 0.703723 0.945929
vn 1.0000 0.0000 -0.0000
vn 0.0000 0.0000 1.0000
vn -1.0000 0.0000 0.0000
vn -0.0000 0.0005 -1.0000
vn 0.0000 -1.0000 0.0000
vn 0.0000 1.0000 0.0021
vn 0.0000 1.0000 0.0000
vn -0.0000 -1.0000 -0.0095
vn -0.0000 -0.0000 -1.0000
vn 0.0000 -0.0001 1.0000
usemtl Laptop
s off
f 1/1/1 4/2/1 3/3/1
f 4/2/2 7/4/2 3/3/2
f 8/5/3 5/6/3 7/4/3
f 15/7/4 1/8/4 5/9/4
f 7/10/5 1/11/5 3/12/5
f 8/13/6 16/14/6 15/15/6
f 9/16/1 18/17/1 16/18/1
f 11/19/7 17/20/7 18/21/7
f 17/22/3 12/23/3 15/24/3
f 12/25/8 16/18/8 15/26/8
f 11/19/9 12/27/9 14/28/9
f 6/29/10 16/30/10 2/31/10
f 10/32/10 17/33/10 13/34/10
f 2/31/10 18/35/10 10/32/10
f 13/34/10 15/36/10 6/29/10
f 13/37/10 6/38/10 2/39/10
f 1/1/1 16/40/1 4/2/1
f 4/2/2 8/5/2 7/4/2
f 8/5/3 15/41/3 5/6/3
f 15/7/4 16/42/4 1/8/4
f 7/10/5 5/43/5 1/11/5
f 8/13/6 4/44/6 16/14/6
f 9/16/1 11/45/1 18/17/1
f 11/19/7 14/28/7 17/20/7
f 17/22/3 14/46/3 12/23/3
f 12/25/8 9/16/8 16/18/8
f 11/19/9 9/47/9 12/27/9
f 6/29/10 15/36/10 16/30/10
f 10/32/10 18/35/10 17/33/10
f 2/31/10 16/30/10 18/35/10
f 13/34/10 17/33/10 15/36/10
f 13/37/10 2/39/10 10/48/10
